<?xml version="1.0" encoding="UTF-8" standalone="no"?>
<svg
   viewBox="0 0 500 500"
   width="800"
   height="800"
   version="1.1"
   id="svg44"
   sodipodi:docname="svgviewer-output.svg"
   inkscape:version="1.2.2 (b0a8486541, 2022-12-01)"
   xmlns:inkscape="http://www.inkscape.org/namespaces/inkscape"
   xmlns:sodipodi="http://sodipodi.sourceforge.net/DTD/sodipodi-0.dtd"
   xmlns="http://www.w3.org/2000/svg"
   xmlns:svg="http://www.w3.org/2000/svg">
  <defs
     id="defs48" />
  <sodipodi:namedview
     id="namedview46"
     pagecolor="#505050"
     bordercolor="#eeeeee"
     borderopacity="1"
     inkscape:showpageshadow="0"
     inkscape:pageopacity="0"
     inkscape:pagecheckerboard="0"
     inkscape:deskcolor="#505050"
     showgrid="false"
     inkscape:zoom="0.57097387"
     inkscape:cx="43.784841"
     inkscape:cy="529.79657"
     inkscape:window-width="1920"
     inkscape:window-height="1131"
     inkscape:window-x="0"
     inkscape:window-y="0"
     inkscape:window-maximized="1"
     inkscape:current-layer="svg44" />
  <rect
     width="500"
     height="500"
     fill="#111"
     id="rect2" />
  <circle
     cx="250"
     cy="250"
     r="225"
     fill="none"
     stroke="#fff"
     stroke-width="20"
     id="circle4" />
  <rect
     x="243"
     y="14"
     width="14"
     height="26"
     fill="#fff"
     id="rect6" />
  <rect
     x="243"
     y="460"
     width="14"
     height="26"
     fill="#fff"
     id="rect8" />
  <rect
     x="460"
     y="243"
     width="26"
     height="14"
     fill="#fff"
     id="rect10" />
  <rect
     x="14"
     y="243"
     width="26"
     height="14"
     fill="#fff"
     id="rect12" />
  <circle
     cx="250"
     cy="250"
     r="200"
     fill="none"
     stroke="#fff"
     stroke-width="8"
     stroke-dasharray="130 22"
     stroke-dashoffset="10"
     id="circle14" />
  <path
     d="M250 78C295 122 328 160 328 202C328 246 294 270 250 270C206 270 172 246 172 202C172 160 205 122 250 78Z"
     fill="#fff"
     id="path16" />
  <rect
     x="242"
     y="226"
     width="16"
     height="42"
     fill="#111"
     rx="3"
     id="rect18" />
  <path
     d="M242 266C205 246 190 210 210 187C234 195 245 248 242 266Z"
     fill="#111"
     id="path20" />
  <path
     d="M258 266C295 246 310 210 290 187C266 195 255 248 258 266Z"
     fill="#111"
     id="path22" />
  <ellipse
     cx="250"
     cy="164"
     rx="20"
     ry="28"
     fill="#111"
     id="ellipse24" />
  <text
     x="250.74002"
     y="349.93399"
     font-family="'Black Ops One', Impact, 'Arial Black', sans-serif"
     font-size="44px"
     text-anchor="middle"
     fill="#ffffff"
     letter-spacing="6"
     id="text34"
     style="font-size:40px;letter-spacing:6.25px"><tspan
       style="font-style:normal;font-variant:normal;font-weight:normal;font-stretch:normal;font-size:40px;font-family:'FiraMono Nerd Font Mono';-inkscape-font-specification:'FiraMono Nerd Font Mono'"
       id="tspan1057">GREEN</tspan></text>
  <rect
     x="178"
     y="361.72598"
     width="144"
     height="7"
     fill="#ffffff"
     id="rect36" />
  <rect
     x="325.6535"
     y="356.72598"
     width="14"
     height="17"
     fill="#ffffff"
     id="rect38" />
  <rect
     x="160.34651"
     y="356.72598"
     width="14"
     height="17"
     fill="#ffffff"
     id="rect40" />
  <text
     x="248.66002"
     y="405.62601"
     font-family="'Black Ops One', Impact, 'Arial Black', sans-serif"
     font-size="44px"
     text-anchor="middle"
     fill="#ffffff"
     letter-spacing="20"
     id="text42"
     style="font-size:40px;letter-spacing:6.25px"><tspan
       style="font-style:normal;font-variant:normal;font-weight:normal;font-stretch:normal;font-size:40px;font-family:'FiraMono Nerd Font Mono';-inkscape-font-specification:'FiraMono Nerd Font Mono'"
       id="tspan1059">BOX</tspan></text>
</svg>
